<!-- icon666.com - MILLIONS vector ICONS FREE --><svg fill="none" viewBox="0 0 24 24" xmlns="http://www.w3.org/2000/svg"><g clip-rule="evenodd" fill="#2e2e2e" fill-rule="evenodd"><path d="m12 3c-4.97056 0-9 4.02944-9 9 0 4.9706 4.02944 9 9 9 4.9706 0 9-4.0294 9-9 0-4.97056-4.0294-9-9-9zm-11 9c0-6.07513 4.92487-11 11-11 6.0751 0 11 4.92487 11 11 0 6.0751-4.9249 11-11 11-6.07513 0-11-4.9249-11-11z" fill="#2e2e2e" style="fill: rgb(255, 255, 255);"></path><path d="m12 5c.5523 0 1 .44772 1 1v5.382l3.4472 1.7236c.494.247.6942.8476.4472 1.3416s-.8476.6942-1.3416.4472l-4-2c-.3388-.1694-.5528-.5156-.5528-.8944v-6c0-.55228.4477-1 1-1z" fill="#2e2e2e" style="fill: rgb(255, 255, 255);"></path></g></svg>